<svg xmlns="http://www.w3.org/2000/svg" version="1.1" xmlns:xlink="http://www.w3.org/1999/xlink" xmlns:svgjs="http://svgjs.dev/svgjs" width="1500" height="1682" viewBox="0 0 1500 1682"><g transform="matrix(1,0,0,1,-2.336338785046678,0)"><svg viewBox="0 0 321 360" data-background-color="#ffffff" preserveAspectRatio="xMidYMid meet" height="1682" width="1500" xmlns="http://www.w3.org/2000/svg" xmlns:xlink="http://www.w3.org/1999/xlink"><g id="tight-bounds" transform="matrix(1,0,0,1,0.5000234999999975,0)"><svg viewBox="0 0 320 360" height="360" width="320"><g><svg></svg></g><g><svg viewBox="0 0 320 360" height="360" width="320"><g><path transform="translate(-74.99272,-51.79039) scale(4.65793,4.65793)" d="M20.6 59.9l0.8 1-0.4-1.3c-0.1-0.6-0.8 0.1-0.4 0.3M21.5 59.3c0.3 0.5 0.6 1 0.6 1.5 0 0.7 0.6 1 1.1 1.2-0.7-0.8-1.1-3-1.7-2.7M59.9 16.9c1.7 0 3.3-0.2 5.1 0.2 4.4 1.1 8.1 3.3 10.6 6.4l7 11.2c0.3 2.8 0.9 5.9 0.8 9.3 0.7 0 0.6-1 1.4-1.2-0.8 2-1.2 4.5-1.4 7.4-0.5-1.6 0-4 0.1-5.3-0.7 1.1-1.1 0.3-1.1-0.2 0.1-0.8-0.3-0.7-0.6-1-1.1-1-1.8-2.1-2.6-3.8 0.5-1.3 0.6-3.2-1-4.2-0.5-0.3-1.1-0.8-1.4-1.6-0.4-1.1-1.1-2.4-0.9-4.1 0.1-0.5-1.5 1.1-2.4 0.4-3.9-2.7-7.8-5.8-12.5-8.4-2.5 0-4.3-0.9-5.2-2-0.8-1-0.2-2.3 1-2.4 0.7 0 1.5-0.2 2.1 0.2 0.1-0.4 0.5-0.9 1-0.9M50 14.6l0.2 0.1c1 0.2 1.5 1.6 2.6 1.1 0 0.7 0.1 1.4-0.1 1.9-0.3 0.8-1.2 0.8-1.9 0.8-6.7-0.4-10.6 2.4-14.7 4.8-1.1 0.7-2.3 1.2-3.2 2.1-4.3 4-9 7.7-10.1 15.1l-0.9 8.2c-0.1 0.9-1.1 1.8-0.9 2.9l0.7 4.9c-0.7-0.7-1.1 0.2-0.9 0.6 0.1 0.3 0.5 1.3 1.1 0.4 0.8 1.5 1.6 4.4 2.7 5.7 3.4 4 7.8 7.6 11.4 11.2 0.9-0.2 1.6-0.2 1.8-0.8 0.3 0.6-0.3 1.2-0.8 1.3 1.6 1 3.4 1.9 5.8 2.1 3.1 0.2 6 0.7 8.7 1.4 1.4-0.4 2.8-0.6 4.3-0.7 0.5 0 0.8-0.8 1.4-1l0.1-1c0.6 0.9 0.5-0.3 0.1-0.9 0.7 0.6 0.9 1.1 1.2 1.5 0-0.3 0.8-1.4 0.8-0.1l0.2-1.3c0.3-0.2 0.4 1.1 0.7 0.2 0.3-0.9 0.9-0.2 1.5-0.5-0.2 0.4-0.1 1.2 0.6 0.7l0.8-0.7c0.5 1.2 1.3 0.7 1.7 0.5 4.4-2.8 8.8-6.1 13-9.4l-0.1 1.3 0.5-1.6c0.5 0.5 0.9 0.1 1.1-0.2 0.6-1 1.4-2 2.7-2.9-1.6 4.3-3.5 7.7-5.9 10.5l-1 1.2c0 0.7-0.2 1.6-1 1.7-0.4 0.1-1.2-0.2-1.8 0.4-0.3 0.4 0.7 1.2-0.1 0.6-0.7-0.5-1.4 0-2.2 0.2-0.6 0.2 0.4 0.8 0.6 1.2 0.2 0.4 0.4 0.8 0.3 1.3l-1.1-1.2c-1.3 0.7-2.1 2-3.2 3-0.5 0.4-0.3 1.1-0.3 1.7-0.7 0-1.5-0.2-1.9 0.2-0.3 0.4-0.2 1-0.2 1.6-1-0.1-1.1-1.6-2-1.3-0.9 0.2-1.9 0.3-2.7 0.8 0.6 1.2-1 0.5-0.8 0.7-1.5-0.9-2.8-1.6-4.4-1-3.4-1.1-7.6-0.6-10.7-0.2 0-0.5 0.1-1-0.1-1.1-0.2 0.5-0.8 0.3-0.7 0.3-1.9-1.3-3.8-2.1-5.8-3.2-1.8 0.2-3.5-0.7-4-1.2-1.4-1.3-3-0.6-4.3-0.9-2.8-0.7-3.8-3.6-4.1-5.6-0.2-1-1-1.4-1.3-1.3-1.3-4.2-3.3-8-4.9-11.9-0.4-1-0.3-2-0.3-3.1 0.5 0.2 1 0.1 0.9-0.6-0.5-3.3-1.7-5.8-3-8.2 0.7-3.4 0.8-7.4 2.4-10.4 1.4-2.7 4-4.1 5.8-6.4 0.6-0.8 0.6-1.9 1.2-2.6 2-2 4-4.1 6.2-5.9 1-0.8 2.2 0 3.7-0.3 0.5-1.8 2.5-3.4 4.4-2.9 0.8 0.2 2.4-1.9 2.9-2.1 0.8-0.3 0.4 0.8 0.4 1.5 1.9-1.5 4.5-2.3 6.9-3.2" fill="#6575a8" fill-rule="nonzero" stroke="none" stroke-width="1" stroke-linecap="butt" stroke-linejoin="miter" stroke-miterlimit="10" stroke-dasharray="" stroke-dashoffset="0" font-family="none" font-weight="none" font-size="none" text-anchor="none" style="mix-blend-mode: normal" data-fill-palette-color="tertiary"></path></g><g transform="matrix(1,0,0,1,100.6203642413915,90)"><svg viewBox="0 0 118.759271517217 180" height="180" width="118.759271517217"><g><svg viewBox="0 0 118.759271517217 180" height="180" width="118.759271517217"><g><svg viewBox="0 0 192 291.00885815883186" height="180" width="118.759271517217"><g transform="matrix(1,0,0,1,0,140.58192625370563)"><svg viewBox="0 0 192 150.42693190512622" height="150.42693190512622" width="192"><g id="textblocktransform"><svg viewBox="0 0 192 150.42693190512622" height="150.42693190512622" width="192" id="textblock"><g><svg viewBox="0 0 192 150.42693190512622" height="150.42693190512622" width="192"><g transform="matrix(1,0,0,1,0,0)"><svg width="192" viewBox="0.49 -25 31.91 25" height="150.42693190512622" data-palette-color="#6575a8"><path d="M32.4-25L24.05 0 22.41 0 16.55-18.85 16.46-20.14 16.36-18.85 10.5 0 8.84 0 0.49-25 3.54-25 9.5-6.1 9.59-4.81 9.69-6.1 15.55-25 17.36-25 23.19-6.1 23.29-4.81 23.39-6.1 29.35-25 32.4-25Z" opacity="1" transform="matrix(1,0,0,1,0,0)" fill="#6575a8" class="wordmark-text-0" data-fill-palette-color="primary" id="text-0"></path></svg></g></svg></g></svg></g></svg></g><g transform="matrix(1,0,0,1,36.672,0)"><svg viewBox="0 0 118.656 118.63102664238198" height="118.63102664238198" width="118.656"><g><svg xmlns="http://www.w3.org/2000/svg" xmlns:xlink="http://www.w3.org/1999/xlink" version="1.1" x="0" y="0" viewBox="2.498 2.499999744540292 19.003999999999998 19.000000255459707" style="enable-background:new 0 0 24 24;" xml:space="preserve" height="118.63102664238198" width="118.656" class="icon-icon-0" data-fill-palette-color="accent" id="icon-0"><g fill="#e3c4e5" data-fill-palette-color="accent"><path d="M3.002 2.5H2.992C2.716 2.5 2.498 2.724 2.498 3S2.727 3.5 3.003 3.5A0.5 0.5 0 0 0 3.002 2.5" fill="#e3c4e5" data-fill-palette-color="accent"></path><path d="M5.002 2.5H4.992C4.716 2.5 4.498 2.724 4.498 3S4.727 3.5 5.003 3.5A0.5 0.5 0 0 0 5.002 2.5" fill="#e3c4e5" data-fill-palette-color="accent"></path><path d="M7.002 2.5H6.992C6.716 2.5 6.498 2.724 6.498 3S6.727 3.5 7.003 3.5A0.5 0.5 0 0 0 7.002 2.5" fill="#e3c4e5" data-fill-palette-color="accent"></path><path d="M9.002 2.5H8.992C8.716 2.5 8.498 2.724 8.498 3S8.727 3.5 9.003 3.5A0.5 0.5 0 0 0 9.002 2.5" fill="#e3c4e5" data-fill-palette-color="accent"></path><path d="M11.002 2.5H10.991C10.716 2.5 10.497 2.724 10.497 3S10.726 3.5 11.002 3.5A0.5 0.5 0 0 0 11.002 2.5" fill="#e3c4e5" data-fill-palette-color="accent"></path><path d="M13.002 2.5H12.991C12.716 2.5 12.497 2.724 12.497 3S12.726 3.5 13.002 3.5A0.5 0.5 0 0 0 13.002 2.5" fill="#e3c4e5" data-fill-palette-color="accent"></path><path d="M15.002 2.5H14.991C14.716 2.5 14.497 2.724 14.497 3S14.726 3.5 15.002 3.5A0.5 0.5 0 0 0 15.002 2.5" fill="#e3c4e5" data-fill-palette-color="accent"></path><path d="M17.002 2.5H16.991C16.716 2.5 16.497 2.724 16.497 3S16.726 3.5 17.002 3.5A0.5 0.5 0 0 0 17.002 2.5" fill="#e3c4e5" data-fill-palette-color="accent"></path><path d="M3.002 4.5H2.992C2.716 4.5 2.498 4.724 2.498 5S2.727 5.5 3.003 5.5A0.5 0.5 0 0 0 3.002 4.5" fill="#e3c4e5" data-fill-palette-color="accent"></path><path d="M5.002 4.5H4.992C4.716 4.5 4.498 4.724 4.498 5S4.727 5.5 5.003 5.5A0.5 0.5 0 0 0 5.002 4.5" fill="#e3c4e5" data-fill-palette-color="accent"></path><path d="M7.002 4.5H6.992C6.716 4.5 6.498 4.724 6.498 5S6.727 5.5 7.003 5.5A0.5 0.5 0 0 0 7.002 4.5" fill="#e3c4e5" data-fill-palette-color="accent"></path><path d="M9.002 4.5H8.992C8.716 4.5 8.498 4.724 8.498 5S8.727 5.5 9.003 5.5A0.5 0.5 0 0 0 9.002 4.5" fill="#e3c4e5" data-fill-palette-color="accent"></path><path d="M11.002 4.5H10.991C10.716 4.5 10.497 4.724 10.497 5S10.726 5.5 11.002 5.5A0.5 0.5 0 0 0 11.002 4.5" fill="#e3c4e5" data-fill-palette-color="accent"></path><path d="M13.002 4.5H12.991C12.716 4.5 12.497 4.724 12.497 5S12.726 5.5 13.002 5.5A0.5 0.5 0 0 0 13.002 4.5" fill="#e3c4e5" data-fill-palette-color="accent"></path><path d="M15.002 4.5H14.991C14.716 4.5 14.497 4.724 14.497 5S14.726 5.5 15.002 5.5A0.5 0.5 0 0 0 15.002 4.5" fill="#e3c4e5" data-fill-palette-color="accent"></path><path d="M3.002 6.5H2.992C2.716 6.5 2.498 6.724 2.498 7S2.727 7.5 3.003 7.5A0.5 0.5 0 0 0 3.002 6.5" fill="#e3c4e5" data-fill-palette-color="accent"></path><path d="M5.002 6.5H4.992C4.716 6.5 4.498 6.724 4.498 7S4.727 7.5 5.003 7.5A0.5 0.5 0 0 0 5.002 6.5" fill="#e3c4e5" data-fill-palette-color="accent"></path><path d="M7.002 6.5H6.992C6.716 6.5 6.498 6.724 6.498 7S6.727 7.5 7.003 7.5A0.5 0.5 0 0 0 7.002 6.5" fill="#e3c4e5" data-fill-palette-color="accent"></path><path d="M9.002 6.5H8.992C8.716 6.5 8.498 6.724 8.498 7S8.727 7.5 9.003 7.5A0.5 0.5 0 0 0 9.002 6.5" fill="#e3c4e5" data-fill-palette-color="accent"></path><path d="M11.002 6.5H10.991C10.716 6.5 10.497 6.724 10.497 7S10.726 7.5 11.002 7.5A0.5 0.5 0 0 0 11.002 6.5" fill="#e3c4e5" data-fill-palette-color="accent"></path><path d="M13.002 6.5H12.991C12.716 6.5 12.497 6.724 12.497 7S12.726 7.5 13.002 7.5A0.5 0.5 0 0 0 13.002 6.5" fill="#e3c4e5" data-fill-palette-color="accent"></path><path d="M3.002 8.5H2.992C2.716 8.5 2.498 8.724 2.498 9S2.727 9.5 3.003 9.5A0.5 0.5 0 0 0 3.002 8.5" fill="#e3c4e5" data-fill-palette-color="accent"></path><path d="M5.002 8.5H4.992C4.716 8.5 4.498 8.724 4.498 9S4.727 9.5 5.003 9.5A0.5 0.5 0 0 0 5.002 8.5" fill="#e3c4e5" data-fill-palette-color="accent"></path><path d="M7.002 8.5H6.992C6.716 8.5 6.498 8.724 6.498 9S6.727 9.5 7.003 9.5A0.5 0.5 0 0 0 7.002 8.5" fill="#e3c4e5" data-fill-palette-color="accent"></path><path d="M9.002 8.5H8.992C8.716 8.5 8.498 8.724 8.498 9S8.727 9.5 9.003 9.5A0.5 0.5 0 0 0 9.002 8.5" fill="#e3c4e5" data-fill-palette-color="accent"></path><path d="M11.002 8.5H10.991C10.716 8.5 10.497 8.724 10.497 9S10.726 9.5 11.002 9.5A0.5 0.5 0 0 0 11.002 8.5" fill="#e3c4e5" data-fill-palette-color="accent"></path><path d="M3.002 10.5H2.992C2.717 10.5 2.498 10.724 2.498 11S2.727 11.5 3.003 11.5A0.5 0.5 0 0 0 3.002 10.5" fill="#e3c4e5" data-fill-palette-color="accent"></path><path d="M5.002 10.5H4.992C4.717 10.5 4.498 10.724 4.498 11S4.727 11.5 5.003 11.5A0.5 0.5 0 0 0 5.002 10.5" fill="#e3c4e5" data-fill-palette-color="accent"></path><path d="M7.002 10.5H6.992C6.717 10.5 6.498 10.724 6.498 11S6.727 11.5 7.003 11.5A0.5 0.5 0 0 0 7.002 10.5" fill="#e3c4e5" data-fill-palette-color="accent"></path><path d="M9.002 10.5H8.992C8.717 10.5 8.498 10.724 8.498 11S8.727 11.5 9.003 11.5A0.5 0.5 0 0 0 9.002 10.5" fill="#e3c4e5" data-fill-palette-color="accent"></path><path d="M3.002 12.5H2.992C2.717 12.5 2.498 12.724 2.498 13S2.727 13.5 3.003 13.5A0.5 0.5 0 0 0 3.002 12.5" fill="#e3c4e5" data-fill-palette-color="accent"></path><path d="M5.002 12.5H4.992C4.717 12.5 4.498 12.724 4.498 13S4.727 13.5 5.003 13.5A0.5 0.5 0 0 0 5.002 12.5" fill="#e3c4e5" data-fill-palette-color="accent"></path><path d="M7.002 12.5H6.992C6.717 12.5 6.498 12.724 6.498 13S6.727 13.5 7.003 13.5A0.5 0.5 0 0 0 7.002 12.5" fill="#e3c4e5" data-fill-palette-color="accent"></path><path d="M11.002 10.5H10.991C10.716 10.5 10.497 10.724 10.497 11S10.726 11.5 11.002 11.5A0.5 0.5 0 0 0 11.002 10.5" fill="#e3c4e5" data-fill-palette-color="accent"></path><path d="M13.002 10.5H12.991C12.716 10.5 12.497 10.724 12.497 11S12.726 11.5 13.002 11.5A0.5 0.5 0 0 0 13.002 10.5" fill="#e3c4e5" data-fill-palette-color="accent"></path><path d="M11.002 12.5H10.991C10.716 12.5 10.497 12.724 10.497 13S10.726 13.5 11.002 13.5A0.5 0.5 0 0 0 11.002 12.5" fill="#e3c4e5" data-fill-palette-color="accent"></path><path d="M13.002 12.5H12.991C12.716 12.5 12.497 12.724 12.497 13S12.726 13.5 13.002 13.5A0.5 0.5 0 0 0 13.002 12.5" fill="#e3c4e5" data-fill-palette-color="accent"></path><path d="M15.002 12.5H14.991C14.716 12.5 14.497 12.724 14.497 13S14.726 13.5 15.002 13.5A0.5 0.5 0 0 0 15.002 12.5" fill="#e3c4e5" data-fill-palette-color="accent"></path><path d="M13.002 14.5H12.991C12.716 14.5 12.497 14.724 12.497 15S12.726 15.5 13.002 15.5A0.5 0.5 0 0 0 13.002 14.5" fill="#e3c4e5" data-fill-palette-color="accent"></path><path d="M15.002 14.5H14.991C14.716 14.5 14.497 14.724 14.497 15S14.726 15.5 15.002 15.5A0.5 0.5 0 0 0 15.002 14.5" fill="#e3c4e5" data-fill-palette-color="accent"></path><path d="M17.002 14.5H16.991C16.716 14.5 16.497 14.724 16.497 15S16.726 15.5 17.002 15.5A0.5 0.5 0 0 0 17.002 14.5" fill="#e3c4e5" data-fill-palette-color="accent"></path><path d="M15.002 16.5H14.991C14.716 16.5 14.497 16.724 14.497 17S14.726 17.5 15.002 17.5A0.5 0.5 0 0 0 15.002 16.5" fill="#e3c4e5" data-fill-palette-color="accent"></path><path d="M17.002 16.5H16.991C16.716 16.5 16.497 16.724 16.497 17S16.726 17.5 17.002 17.5A0.5 0.5 0 0 0 17.002 16.5" fill="#e3c4e5" data-fill-palette-color="accent"></path><path d="M19.002 16.5H18.991C18.716 16.5 18.497 16.724 18.497 17S18.726 17.5 19.002 17.5A0.5 0.5 0 0 0 19.002 16.5" fill="#e3c4e5" data-fill-palette-color="accent"></path><path d="M17.002 18.5H16.991C16.716 18.5 16.497 18.724 16.497 19S16.726 19.5 17.002 19.5A0.5 0.5 0 0 0 17.002 18.5" fill="#e3c4e5" data-fill-palette-color="accent"></path><path d="M19.002 18.5H18.991C18.716 18.5 18.497 18.724 18.497 19S18.726 19.5 19.002 19.5A0.5 0.5 0 0 0 19.002 18.5" fill="#e3c4e5" data-fill-palette-color="accent"></path><path d="M21.002 18.5H20.991C20.716 18.5 20.497 18.724 20.497 19S20.726 19.5 21.002 19.5A0.5 0.5 0 0 0 21.002 18.5" fill="#e3c4e5" data-fill-palette-color="accent"></path><path d="M19.002 20.5H18.991C18.716 20.5 18.497 20.724 18.497 21S18.726 21.5 19.002 21.5A0.5 0.5 0 0 0 19.002 20.5" fill="#e3c4e5" data-fill-palette-color="accent"></path><path d="M3.002 14.5H2.992C2.717 14.5 2.498 14.724 2.498 15S2.727 15.5 3.003 15.5A0.5 0.5 0 0 0 3.002 14.5" fill="#e3c4e5" data-fill-palette-color="accent"></path><path d="M5.002 14.5H4.992C4.717 14.5 4.498 14.724 4.498 15S4.727 15.5 5.003 15.5A0.5 0.5 0 0 0 5.002 14.5" fill="#e3c4e5" data-fill-palette-color="accent"></path><path d="M3.002 16.5H2.992C2.717 16.5 2.498 16.724 2.498 17S2.727 17.5 3.003 17.5A0.5 0.5 0 0 0 3.002 16.5" fill="#e3c4e5" data-fill-palette-color="accent"></path></g></svg></g></svg></g><g></g></svg></g></svg></g></svg></g></svg></g><defs></defs></svg><rect width="320" height="360" fill="none" stroke="none" visibility="hidden"></rect></g></svg></g></svg>